<svg width="24" height="24" viewBox="0 0 24 24" fill="none" xmlns="http://www.w3.org/2000/svg">
<g clip-path="url(#clip0)">
<path d="M22.8584 2.40824H20.4116C20.2229 2.40824 20.07 2.56115 20.07 2.74982C20.07 2.93849 20.2229 3.09139 20.4116 3.09139H22.8584C23.0618 3.09139 23.2273 3.25686 23.2273 3.46025V22.948C23.2273 23.1514 23.0618 23.3169 22.8584 23.3169H2.52508C1.5595 23.3169 0.773974 22.5314 0.773974 21.5658C0.773974 20.6003 1.5596 19.8147 2.52526 19.8147C3.26931 19.8147 3.93376 20.2866 4.17863 20.9889C4.23488 21.1503 4.38727 21.2588 4.55771 21.2588C4.77929 21.2588 4.95957 21.0785 4.95957 20.8569V3.09135H18.2894C18.4781 3.09135 18.631 2.93844 18.631 2.74977C18.631 2.5611 18.4781 2.40819 18.2894 2.40819H4.95891C4.95863 2.39694 4.95769 2.38588 4.95727 2.37463C4.95652 2.35499 4.95558 2.3354 4.95441 2.3159C4.9531 2.29452 4.95146 2.27329 4.94963 2.25205C4.94794 2.23255 4.94607 2.2131 4.94391 2.19369C4.94157 2.17269 4.9389 2.15183 4.93604 2.13098C4.93336 2.11166 4.9306 2.09235 4.9275 2.07318C4.92418 2.0526 4.92052 2.03216 4.91672 2.01177C4.91311 1.9926 4.90941 1.97343 4.90538 1.9544C4.90111 1.93429 4.89652 1.91437 4.89174 1.89445C4.88719 1.87546 4.8826 1.85657 4.87763 1.83777C4.87243 1.81813 4.8669 1.79863 4.86127 1.77913C4.85583 1.76043 4.85035 1.74177 4.84449 1.72326C4.8384 1.70404 4.83197 1.68501 4.82546 1.66598C4.81918 1.6476 4.8128 1.62927 4.8061 1.61109C4.79916 1.59234 4.7919 1.57382 4.78454 1.55531C4.77736 1.53721 4.77015 1.51917 4.76255 1.50131C4.75482 1.48312 4.74671 1.46512 4.73855 1.44717C4.73054 1.42945 4.72247 1.41173 4.71404 1.3942C4.70551 1.37648 4.6966 1.35904 4.68765 1.34156C4.67879 1.32426 4.66993 1.30696 4.66069 1.2899C4.65136 1.27265 4.64166 1.25568 4.63191 1.23871C4.6223 1.22189 4.61269 1.2051 4.60271 1.18856C4.59263 1.17182 4.58213 1.15537 4.57163 1.13892C4.56122 1.1226 4.55091 1.10625 4.54018 1.09021C4.52935 1.074 4.5181 1.0581 4.5069 1.04217C4.49579 1.02642 4.48477 1.01062 4.47333 0.995152C4.46176 0.979449 4.44976 0.964074 4.4378 0.948699C4.42604 0.933511 4.41432 0.918277 4.40223 0.903418C4.38994 0.888324 4.37724 0.873559 4.36463 0.858746C4.35216 0.844121 4.33979 0.829449 4.32699 0.815153C4.31401 0.800621 4.30065 0.786512 4.28738 0.772309C4.2743 0.75834 4.26127 0.744278 4.24787 0.73059C4.23418 0.716669 4.22012 0.703122 4.20615 0.689528C4.19246 0.676262 4.17891 0.662856 4.16494 0.649872C4.1506 0.636513 4.13584 0.623622 4.12116 0.610638C4.10696 0.598075 4.0929 0.585372 4.07841 0.573091C4.06332 0.560341 4.0479 0.548107 4.03252 0.535685C4.01785 0.523872 4.00332 0.511919 3.98841 0.500435C3.97266 0.488341 3.95654 0.476763 3.94051 0.465044C3.92537 0.453982 3.91037 0.442732 3.89495 0.432045C3.87863 0.420654 3.8619 0.409873 3.84531 0.398857C3.8297 0.388545 3.81418 0.377998 3.79834 0.368061C3.78137 0.357373 3.76402 0.347295 3.74677 0.337029C3.73079 0.327514 3.71495 0.317811 3.69877 0.30867C3.6811 0.298686 3.66306 0.289358 3.64515 0.279842C3.62888 0.27117 3.61276 0.262264 3.59626 0.254014C3.57788 0.24478 3.55913 0.236202 3.54048 0.227436C3.52398 0.219702 3.50767 0.211639 3.49098 0.204233C3.47185 0.195749 3.4524 0.188014 3.43304 0.180046C3.4164 0.173202 3.3999 0.165983 3.38307 0.159514C3.36325 0.151874 3.34304 0.144983 3.32293 0.137811C3.3062 0.131858 3.2896 0.125577 3.27273 0.119952C3.25206 0.113108 3.23101 0.107108 3.2101 0.100827C3.19342 0.0958116 3.17687 0.090421 3.16004 0.0857804C3.13857 0.0798273 3.11682 0.0747648 3.09512 0.0694211C3.07843 0.0652961 3.06193 0.0607961 3.04511 0.0570461C3.02265 0.0520305 2.99987 0.0479524 2.97718 0.0435931C2.96087 0.0404524 2.9447 0.0368431 2.92825 0.0340306C2.90406 0.0299056 2.87954 0.026765 2.85508 0.0233431C2.83984 0.0212338 2.82479 0.0186088 2.80951 0.0167807C2.78218 0.0135463 2.75462 0.0113432 2.72701 0.00899944C2.71431 0.00792132 2.70175 0.00632758 2.689 0.00548383C2.64854 0.00271822 2.60786 0.00098385 2.56694 0.000280728C1.91045 -0.00951611 1.28744 0.237374 0.818411 0.698669C0.349241 1.16006 0.0908672 1.77646 0.0908672 2.43435V15.2663C0.0908672 15.455 0.243773 15.6079 0.432444 15.6079C0.621115 15.6079 0.774021 15.455 0.774021 15.2663V2.43435C0.774021 1.96105 0.95988 1.51762 1.29738 1.1857C1.63478 0.853824 2.07991 0.675184 2.55536 0.683387C3.50443 0.699231 4.27651 1.50018 4.27651 2.4688V2.74977V19.8755C3.82721 19.4106 3.1997 19.1316 2.52526 19.1316C1.83836 19.1316 1.21703 19.4176 0.773974 19.8767V17.3886C0.773974 17.1999 0.621068 17.047 0.432397 17.047C0.243726 17.047 0.0908203 17.1999 0.0908203 17.3886V21.5658C0.0908203 22.908 1.18282 24 2.52503 24H22.8583C23.4384 24 23.9103 23.5281 23.9103 22.948V3.46025C23.9104 2.88018 23.4384 2.40824 22.8584 2.40824Z" fill="#886CC0"/>
<path d="M21.3926 7.30685C21.5813 7.30685 21.7342 7.15394 21.7342 6.96527V5.91148C21.7342 5.4431 21.3531 5.06201 20.8847 5.06201H6.6981C6.22972 5.06201 5.84863 5.4431 5.84863 5.91148V20.098C5.84863 20.5664 6.22972 20.9475 6.6981 20.9475H20.8847C21.353 20.9475 21.7341 20.5664 21.7341 20.098V9.92968C21.7341 9.74101 21.5812 9.5881 21.3926 9.5881C21.2039 9.5881 21.051 9.74101 21.051 9.92968V12.2204H16.6696C16.4809 12.2204 16.328 12.3733 16.328 12.562C16.328 12.7507 16.4809 12.9036 16.6696 12.9036H21.051V15.7629H19.4987C19.31 15.7629 19.1571 15.9158 19.1571 16.1045C19.1571 16.2932 19.31 16.4461 19.4987 16.4461H21.051V20.0981C21.051 20.1898 20.9764 20.2645 20.8846 20.2645H12.8866V16.4461H16.2023C16.391 16.4461 16.5439 16.2932 16.5439 16.1045C16.5439 15.9158 16.391 15.7629 16.2023 15.7629H9.99059C9.80191 15.7629 9.64901 15.9158 9.64901 16.1045C9.64901 16.2932 9.80191 16.4461 9.99059 16.4461H12.2034V20.2645H6.6981C6.60636 20.2645 6.53174 20.1898 6.53174 20.0981V16.4461H7.64122C7.82989 16.4461 7.9828 16.2932 7.9828 16.1045C7.9828 15.9158 7.82989 15.7629 7.64122 15.7629H6.53174V10.7471H11.725C11.9136 10.7471 12.0665 10.5942 12.0665 10.4055V8.82264C12.0665 8.63397 11.9136 8.48106 11.725 8.48106C11.5363 8.48106 11.3834 8.63397 11.3834 8.82264V10.0639H6.53174V5.91148C6.53174 5.81974 6.60636 5.74512 6.6981 5.74512H11.3834V6.70699C11.3834 6.89566 11.5363 7.04857 11.725 7.04857C11.9136 7.04857 12.0665 6.89566 12.0665 6.70699V5.74512H16.3282V10.4955C16.3282 10.6842 16.4811 10.8371 16.6697 10.8371C16.8584 10.8371 17.0113 10.6842 17.0113 10.4955V5.74512H20.8848C20.9765 5.74512 21.0511 5.81974 21.0511 5.91148V6.96527C21.0511 7.15399 21.204 7.30685 21.3926 7.30685Z" fill="#886CC0"/>
</g>
<defs>
<clipPath id="clip0">
<rect width="24" height="24" fill="white"/>
</clipPath>
</defs>
</svg>
